<svg width="184" height="322" viewBox="0 0 184 322" fill="none" xmlns="http://www.w3.org/2000/svg">
<path d="M129.101 130.385L122.923 215.235C122.923 215.235 89.5237 283.965 89.6968 310.694L83.6399 307.679C83.6399 307.679 90.2159 274.986 104.925 208.402L107.521 134.044L129.101 130.385Z" fill="white" stroke="black" stroke-width="2" stroke-miterlimit="10"/>
<path d="M82.7937 304.512L83.742 318.459L87.0058 317.688C87.0058 317.688 96.8335 320.449 105.471 318.588C105.471 318.588 94.7552 308.899 89.676 306.208C89.676 306.208 90.8286 310.559 82.7937 304.512Z" fill="black"/>
<path d="M107.215 95.4611L99.7339 209.005L77.2369 300.043L95.7537 305.268L126.903 215.436L129.153 130.427L107.215 95.4611Z" fill="black"/>
<path d="M179.557 138.596C179.53 138.819 179.487 139.038 179.429 139.252L179.681 139.979C179.681 139.979 181.292 143.767 182.114 147.146C182.852 150.176 178.968 142.865 178.162 141.33C178.096 141.205 178.051 141.129 178.029 141.078C178.046 141.121 178.084 141.213 178.141 141.348C178.551 142.353 179.872 145.691 180.297 148.315C180.794 151.396 176.699 142.449 176.589 142.208C176.627 142.365 177.861 147.389 177.861 149.427C177.861 151.464 174.545 143.349 174.453 143.122C174.5 143.311 176.256 150.226 175.725 150.343C175.194 150.459 170.84 137.423 170.84 137.423L144.51 99.193L127.604 55.4667L136.776 49.1544L152.065 92.9369C152.065 92.9369 179.108 135.944 179.186 136.121C180.901 138.412 182.781 141.211 182.959 142.69C183.196 144.676 180.896 140.91 179.557 138.596Z" fill="white" stroke="black" stroke-width="2" stroke-miterlimit="10"/>
<path d="M140.402 123.393L162.379 196.344C162.379 196.344 151.131 280.451 159.97 308.602L154.85 312.237C154.85 312.237 141.959 269.295 150.266 200.363L116.806 127.666L140.402 123.393Z" fill="white" stroke="black" stroke-width="2" stroke-miterlimit="10"/>
<path d="M124.209 35.9986C126.136 34.8718 128.369 34.68 130.417 35.4654C132.466 36.2507 134.161 37.9488 135.132 40.1862L159.441 96.2428L144.912 104.74L120.603 48.6831C119.633 46.4457 119.468 43.8523 120.144 41.4735C120.82 39.0947 122.282 37.1253 124.209 35.9986Z" fill="black"/>
<path d="M134.691 80.7884L110.29 78.1759L114.776 42.7616C114.883 41.0991 115.271 39.4775 115.918 37.9892C116.565 36.501 117.457 35.1753 118.546 34.0878C119.634 33.0004 120.896 32.1725 122.259 31.6515C123.623 31.1305 125.062 30.9265 126.493 31.0513L129.196 31.2864C132.087 31.5382 134.774 33.1132 136.665 35.665C138.556 38.2169 139.496 41.5365 139.28 44.8938L134.691 80.7884Z" fill="#1C9FE2"/>
<path d="M134.878 24.4495L131.486 37.1787C130.551 37.2862 129.609 37.128 128.739 36.7176C127.869 36.3072 127.098 35.6571 126.493 34.8234L130.062 22.2268C132.657 8.90677 136.83 8.41641 140.017 11.6801C143.205 14.9438 140.699 23.8989 138.145 25.0645C135.591 26.2301 131.915 21.849 131.915 21.849" fill="white"/>
<path d="M134.878 24.4495L131.486 37.1787C130.551 37.2862 129.609 37.128 128.739 36.7176C127.869 36.3072 127.098 35.6571 126.493 34.8234L130.062 22.2268C132.657 8.90677 136.83 8.41641 140.017 11.6801C143.205 14.9438 140.699 23.8989 138.145 25.0645C135.591 26.2301 131.915 21.849 131.915 21.849" stroke="black" stroke-width="2" stroke-miterlimit="10"/>
<path d="M139.193 17.8859C139.345 17.8859 139.469 17.7428 139.469 17.5664C139.469 17.3899 139.345 17.2468 139.193 17.2468C139.042 17.2468 138.918 17.3899 138.918 17.5664C138.918 17.7428 139.042 17.8859 139.193 17.8859Z" fill="black"/>
<path d="M134.402 26.2743C134.402 26.2743 132.105 24.7932 131.965 21.9033C131.965 21.9033 133.893 24.0436 134.834 24.3933L134.402 26.2743Z" fill="black"/>
<path d="M151.832 303.72L152.797 317.665L156.059 316.89C156.059 316.89 165.89 319.635 174.526 317.76C174.526 317.76 163.796 308.089 158.717 305.406C158.717 305.406 159.875 309.753 151.832 303.72Z" fill="black"/>
<path d="M110.117 78.1758C110.117 78.1758 91.6004 113.747 145.593 200.363L149.054 303.861L162.206 303.057L164.975 196.545L134.691 80.7884L110.117 78.1758Z" fill="white" stroke="black" stroke-width="2" stroke-miterlimit="10"/>
<path d="M143.17 6.22985C139.536 4.22019 137.113 7.23468 137.113 7.23468C137.113 7.23468 138.671 2.21053 134.864 5.62695C132.053 8.14908 131.676 12.3794 131.671 14.4253C131.549 15.0605 131.491 15.7099 131.498 16.3606C134.89 16.2541 136.385 14.1499 137.046 12.3593C138.337 13.9108 141.061 16.7183 143.035 15.5467C143.035 15.5467 142.952 15.2975 142.793 14.9016C147.099 12.701 146.598 8.12497 143.17 6.22985Z" fill="black"/>
<path d="M59.6155 190.174L90.3558 204.049L55.8257 307.218C55.2475 308.946 54.3821 310.524 53.2788 311.863C52.1755 313.201 50.8559 314.275 49.3954 315.022C47.9348 315.768 46.3619 316.174 44.7665 316.214C43.1711 316.255 41.5844 315.93 40.097 315.259L11.7795 302.477C8.77553 301.122 6.35844 298.435 5.05993 295.01C3.76141 291.584 3.68784 287.7 4.85541 284.212L31.5225 204.536C33.6079 198.305 37.7393 193.291 43.0077 190.598C48.2762 187.905 54.2502 187.752 59.6155 190.174Z" fill="#1C9FE2"/>
<path d="M45.568 321.144C55.3166 321.144 63.2194 311.967 63.2194 300.646C63.2194 289.325 55.3166 280.147 45.568 280.147C35.8193 280.147 27.9165 289.325 27.9165 300.646C27.9165 311.967 35.8193 321.144 45.568 321.144Z" fill="black"/>
<path d="M56.1243 223.073L86.2356 140.676L71.3945 143.098L52.7999 190.737" stroke="black" stroke-width="2" stroke-miterlimit="10"/>
<path d="M11.7943 277.067C9.88138 276.163 8.35614 274.413 7.55413 272.203C6.75211 269.992 6.73901 267.503 7.51772 265.281L24.3514 217.258C25.1301 215.037 26.6368 213.266 28.5401 212.334C30.4434 211.403 32.5873 211.388 34.5002 212.292L11.7943 277.067Z" fill="black"/>
<path d="M45.7812 226.6L66.1186 235.732L56.5696 264.411C55.5268 267.542 53.4554 270.065 50.811 271.423C48.1666 272.782 45.1659 272.864 42.469 271.653C39.7721 270.442 37.6 268.037 36.4303 264.966C35.2607 261.895 35.1895 258.41 36.2323 255.278L45.7812 226.6Z" fill="black"/>
<path d="M45.5681 312.904C51.3982 312.904 56.1244 307.416 56.1244 300.646C56.1244 293.875 51.3982 288.387 45.5681 288.387C39.738 288.387 35.0118 293.875 35.0118 300.646C35.0118 307.416 39.738 312.904 45.5681 312.904Z" fill="black"/>
<path d="M125.519 88.4252C125.519 88.4252 128.461 99.8803 117.731 107.718" stroke="black" stroke-width="2" stroke-miterlimit="10"/>
<path d="M129.265 126.233L154.419 195.339L156.668 295.22" stroke="black" stroke-width="2" stroke-miterlimit="10"/>
<path d="M124.242 50.5471L99.2043 87.7841L81.4074 134.408C81.1288 137.222 80.338 144.006 79.0695 145.64C77.4739 147.696 80.0074 138.349 80.068 138.126L78.7545 140.982C78.7545 140.982 77.2922 144.849 75.5911 147.75C73.9125 150.616 76.9028 140.445 76.9755 140.194C76.9271 140.323 75.3627 144.471 73.6529 146.886C71.9431 149.302 75.2104 139.897 75.2986 139.652C75.2208 139.786 72.7028 144.113 71.353 145.421C70.0032 146.73 73.2376 138.552 73.3224 138.339C73.2185 138.52 69.7921 144.509 69.3767 144.111C68.9874 143.737 73.9125 133.259 74.6653 131.663L90.7593 83.3046L114.963 44.4698L124.242 50.5471Z" fill="white" stroke="black" stroke-width="2" stroke-miterlimit="10"/>
<path d="M129.128 29.7227C130.864 31.2096 132.02 33.4365 132.342 35.9135C132.664 38.3905 132.126 40.9146 130.846 42.9307L99.4994 92.2876L86.4079 81.0747L117.754 31.7179C119.035 29.7018 120.952 28.359 123.085 27.9848C125.218 27.6106 127.392 28.2358 129.128 29.7227Z" fill="black"/>
<path d="M158.918 7.23468L135.21 12.0579" stroke="black" stroke-width="2" stroke-miterlimit="10"/>
<path d="M146.933 10.199L135.556 12.7271L131.057 13.7319L130.61 11.0189C130.459 10.1026 130.465 9.16068 130.627 8.24695C130.789 7.33322 131.105 6.46557 131.556 5.69354C132.007 4.92151 132.585 4.26022 133.256 3.74743C133.927 3.23464 134.679 2.88039 135.468 2.70492L139.329 1.84679C140.922 1.49293 142.571 1.88866 143.914 2.94695C145.256 4.00524 146.181 5.63939 146.486 7.48993L146.933 10.199Z" fill="#1C9FE2"/>
<path d="M136.767 1.60773C137.15 1.60773 137.46 1.24783 137.46 0.803865C137.46 0.359903 137.15 0 136.767 0C136.385 0 136.075 0.359903 136.075 0.803865C136.075 1.24783 136.385 1.60773 136.767 1.60773Z" fill="#1C9FE2"/>
</svg>
